PathFileType	4	(X/Y/Z)	/Users/itak/Documents/Research/Walk-IL/dataset/trc/00559_00009.trc
DataRate	CameraRate	NumFrames	NumMarkers	Units	OrigDataRate	OrigDataStartFrame	OrigNumFrames
100.000000	100.000000	4	53	mm	100.000000	210	337
Frame#	Time	RPSI			LPSI			L3			STRN			T10			C7			CLAV			RBAK			LBAK			LSHO			LUPA			LAEL			LAOL			LWTS			LWPS			LFRA			LIFD			LHPS			LHTS			RSHO			RUPA			RAEL			RAOL			RWTS			RWPS			RFRA			RIFD			RHTS			RHPS			RBHD			LFHD			RFHD			LBHD			LHIP			RHIP			RASI			LASI			LKNE			LTHI			LANK			LTIP			LTOE			LMT1			LMT5			LHEE			RKNE			RTHI			RANK			RTIP			RTOE			RMT1			RMT5			RHEE			
		X1	Y1	Z1	X2	Y2	Z2	X3	Y3	Z3	X4	Y4	Z4	X5	Y5	Z5	X6	Y6	Z6	X7	Y7	Z7	X8	Y8	Z8	X9	Y9	Z9	X10	Y10	Z10	X11	Y11	Z11	X12	Y12	Z12	X13	Y13	Z13	X14	Y14	Z14	X15	Y15	Z15	X16	Y16	Z16	X17	Y17	Z17	X18	Y18	Z18	X19	Y19	Z19	X20	Y20	Z20	X21	Y21	Z21	X22	Y22	Z22	X23	Y23	Z23	X24	Y24	Z24	X25	Y25	Z25	X26	Y26	Z26	X27	Y27	Z27	X28	Y28	Z28	X29	Y29	Z29	X30	Y30	Z30	X31	Y31	Z31	X32	Y32	Z32	X33	Y33	Z33	X34	Y34	Z34	X35	Y35	Z35	X36	Y36	Z36	X37	Y37	Z37	X38	Y38	Z38	X39	Y39	Z39	X40	Y40	Z40	X41	Y41	Z41	X42	Y42	Z42	X43	Y43	Z43	X44	Y44	Z44	X45	Y45	Z45	X46	Y46	Z46	X47	Y47	Z47	X48	Y48	Z48	X49	Y49	Z49	X50	Y50	Z50	X51	Y51	Z51	X52	Y52	Z52	X53	Y53	Z53	

211	2.1	470.7089538574219	944.2592163085938	388.6902465820312	508.5133666992188	938.0972900390625	260.8806762695312	500.7338562011719	1052.534545898438	320.5577392578125	750.2685546875	1226.393432617188	370.7953491210938	506.5069274902344	1178.59521484375	323.4181518554688	572.760498046875	1449.954223632812	357.0675659179688	738.74560546875	1337.118286132812	371.3019104003906	478.1590881347656	1329.692138671875	426.7372436523438	550.26953125	1401.02978515625	261.1719360351562	662.4462890625	1421.9443359375	197.8363952636719	651.2721557617188	1307.15673828125	104.6208877563477	647.3050537109375	1105.08837890625	48.56509780883789	551.04345703125	1083.487915039062	77.02055358886719	798.207275390625	927.0726928710938	148.8552856445312	789.027587890625	881.0507202148438	75.45402526855469	695.4957275390625	1033.335815429688	53.30956649780273	866.7083129882812	780.3858032226562	179.1510925292969	822.1661376953125	834.645263671875	95.68695068359375	853.253662109375	869.6075439453125	145.5543518066406	603.2438354492188	1408.060913085938	516.1347045898438	569.8868408203125	1348.685180664062	578.7205810546875	538.4876708984375	1076.636352539062	655.79833984375	489.4121704101562	1049.526245117188	626.2985229492188	727.6405029296875	906.55859375	651.1427612304688	680.4036254882812	875.9381103515625	710.4180908203125	558.8535766601562	1025.247436523438	668.6678466796875	801.564453125	760.199951171875	685.011474609375	785.379150390625	842.4923095703125	690.2293701171875	726.0958862304688	820.3678588867188	728.2891235351562	674.2769775390625	1623.40576171875	451.1527404785156	847.8182373046875	1614.319213867188	336.8801574707031	812.6455688476562	1609.943115234375	477.4914245605469	721.6925048828125	1625.372680664062	293.0037841796875	680.589111328125	880.126953125	176.6595458984375	566.0756225585938	890.965087890625	539.8793334960938	658.9563598632812	929.5715942382812	508.2561340332031	734.2982788085938	912.4189453125	244.7169494628906	964.120849609375	550.3304443359375	288.2201843261719	861.5380249023438	680.9390869140625	234.7863006591797	823.1767578125	79.26406097412109	246.6139831542969	882.0077514648438	305.8017272949219	256.7974243164062	1018.027099609375	69.19767761230469	329.7467956542969	943.713623046875	70.60880279541016	354.0989685058594	943.8231201171875	64.99406433105469	248.6533813476562	748.4071044921875	90.26854705810547	288.5001831054688	740.8709106445312	470.0038146972656	524.244140625	645.497314453125	750.2919311523438	557.1819458007812	544.3318481445312	47.85569000244141	396.404052734375	722.833740234375	322.6086120605469	487.9679870605469	770.3976440429688	38.69223022460938	436.4129943847656	721.504638671875	45.20950698852539	375.5061340332031	661.0026245117188	41.08773422241211	461.6856384277344	513.0526733398438	41.11828994750977	325.0970153808594	
212	2.11	485.3538513183594	948.6649780273438	391.605712890625	523.4873657226562	943.2512817382812	264.1415100097656	514.8992919921875	1057.170654296875	324.0603332519531	763.8287963867188	1231.6201171875	373.9991149902344	520.1075439453125	1183.193237304688	327.1156311035156	585.944580078125	1454.460327148438	360.6340637207031	752.0475463867188	1342.165771484375	374.30908203125	491.482666015625	1334.2451171875	430.5000305175781	563.3926391601562	1405.576538085938	264.9070739746094	675.046142578125	1426.686401367188	201.1793823242188	662.1782836914062	1312.612915039062	107.5575103759766	654.2364501953125	1110.774047851562	50.37360000610352	558.5687255859375	1090.456420898438	81.13072204589844	805.6184692382812	930.0075073242188	145.5692443847656	793.2823486328125	884.353759765625	72.40701293945312	701.6013793945312	1038.337768554688	53.39131927490234	872.525146484375	781.6702270507812	172.8905334472656	826.1614990234375	837.2553100585938	91.35600280761719	859.5723266601562	871.3760986328125	140.3402557373047	616.7747192382812	1412.750122070312	519.38134765625	583.7367553710938	1353.251831054688	582.0195922851562	553.8902587890625	1080.816162109375	658.0991821289062	504.2490844726562	1053.680786132812	629.3804321289062	745.0115966796875	913.397216796875	650.80224609375	698.7073364257812	881.65380859375	710.1710205078125	574.8311767578125	1029.67236328125	670.4873657226562	821.5806884765625	768.0616455078125	682.7211303710938	804.1528930664062	850.0759887695312	688.990966796875	745.4591674804688	826.6694946289062	727.3653564453125	687.9201049804688	1628.072875976562	454.1384582519531	861.3125610351562	1618.586547851562	339.6727600097656	826.2593994140625	1614.3310546875	480.3702697753906	735.0908813476562	1629.809326171875	295.9761352539062	696.023681640625	886.5242309570312	180.4052276611328	579.5960083007812	894.593017578125	543.082763671875	672.932861328125	933.5489501953125	512.13134765625	749.1746215820312	917.7706909179688	248.8900451660156	976.0906372070312	554.4497680664062	291.1510314941406	874.7869262695312	685.9364624023438	238.5566711425781	874.8129272460938	70.19163513183594	260.6856689453125	914.1663208007812	302.3370361328125	263.9340515136719	1069.278076171875	72.14675903320312	345.6193542480469	994.63720703125	71.21207427978516	369.3368835449219	996.03271484375	61.27635192871094	264.4840087890625	798.9737548828125	79.19001770019531	301.3394775390625	745.5604248046875	470.3119812011719	524.2152709960938	656.794189453125	752.5809936523438	559.2765502929688	544.6722412109375	49.28763580322266	396.4906616210938	725.6448974609375	323.0688171386719	487.8982849121094	770.3441772460938	38.68441772460938	436.317626953125	721.643310546875	45.28109741210938	375.6117858886719	661.1797485351562	41.03975296020508	461.5221252441406	513.245849609375	43.34724807739258	325.1703186035156	
213	2.12	500.23779296875	953.0260009765625	394.4518737792969	538.7843627929688	948.3289184570312	267.3566284179688	529.2179565429688	1061.691162109375	327.5563049316406	777.2800903320312	1236.917358398438	377.228515625	533.6456298828125	1187.6640625	330.7641906738281	598.8564453125	1458.847900390625	364.1278686523438	765.1484375	1347.2900390625	377.3554992675781	504.6065063476562	1338.621826171875	434.1310729980469	576.3175659179688	1410.016357421875	268.5629577636719	687.4443969726562	1431.390991210938	204.5376586914062	673.0699462890625	1318.091186523438	110.4538421630859	661.5234375	1116.434448242188	52.36325836181641	566.5341186523438	1097.257934570312	85.33158111572266	813.3550415039062	933.101806640625	142.6510314941406	798.1177368164062	887.8970947265625	69.76258087158203	708.1277465820312	1043.409790039062	53.72891616821289	878.5573120117188	783.1546630859375	167.1824188232422	830.7680053710938	840.1516723632812	87.39524841308594	866.2012329101562	873.358642578125	135.6437377929688	629.947509765625	1417.365844726562	522.5382690429688	597.1945190429688	1357.749389648438	585.2233276367188	568.912353515625	1084.921875	660.315185546875	518.813232421875	1057.742553710938	632.2664794921875	761.6893920898438	919.7884521484375	650.6805419921875	716.22412109375	887.0217895507812	710.0652465820312	590.3553466796875	1033.982055664062	672.2817993164062	840.4785766601562	775.285888671875	680.691162109375	822.0272827148438	857.049072265625	687.9884643554688	763.833251953125	832.5154418945312	726.5897827148438	701.318115234375	1632.713256835938	457.1084899902344	874.5489501953125	1622.732299804688	342.3918151855469	839.6099243164062	1618.623168945312	483.1885070800781	748.2342529296875	1634.166381835938	298.9071655273438	711.619384765625	892.5126953125	184.086181640625	593.3464965820312	898.2333374023438	546.25537109375	687.186279296875	937.480712890625	515.85791015625	764.3829956054688	923.05419921875	252.9957427978516	986.9490356445312	556.6484375	293.8558349609375	887.3936767578125	689.3316650390625	241.9970703125	924.8060302734375	62.87454605102539	274.5974426269531	945.0936279296875	299.1232604980469	270.761962890625	1117.457885742188	75.15520477294922	362.5463256835938	1042.485595703125	72.89891052246094	385.030029296875	1046.072631835938	57.93090057373047	281.1415710449219	847.84375	70.80172729492188	313.4308471679688	750.4537963867188	470.8726806640625	524.196044921875	668.1737670898438	754.9922485351562	561.3896484375	545.0289916992188	51.01858901977539	396.6886291503906	728.6884155273438	323.7645874023438	487.8732299804688	770.3204345703125	38.66970825195312	436.2026977539062	721.824951171875	45.39293670654297	375.7295532226562	661.42431640625	40.98870468139648	461.3677368164062	513.4856567382812	46.01933288574219	325.3439331054688	
214	2.13	515.3436889648438	957.2533569335938	397.1958923339844	554.4196166992188	953.1749267578125	270.4909057617188	543.70751953125	1065.97900390625	330.9826354980469	790.6483764648438	1242.188354492188	380.4658813476562	547.1447143554688	1191.879150390625	334.3415222167969	611.4912109375	1463.005981445312	367.5328063964844	778.0557861328125	1352.398315429688	380.4183654785156	517.52880859375	1342.701416015625	437.620361328125	589.0286865234375	1414.21533203125	272.1400451660156	699.6116333007812	1435.954956054688	207.8920135498047	683.9307861328125	1323.4755859375	113.296875	669.224365234375	1121.945434570312	54.47237777709961	574.9678955078125	1103.754760742188	89.52316284179688	821.4762573242188	936.2792358398438	140.1275787353516	803.6213989257812	891.5516967773438	67.53300476074219	715.138427734375	1048.421752929688	54.2949333190918	884.9716186523438	784.840087890625	162.1297607421875	836.0595092773438	843.22607421875	83.89388275146484	873.242431640625	875.5181274414062	131.5082550048828	642.7597045898438	1421.7802734375	525.5927124023438	610.25	1362.051025390625	588.3117065429688	583.5734252929688	1088.833251953125	662.4700317382812	533.1531372070312	1061.576782226562	634.9494018554688	777.7471313476562	925.6377563476562	650.8416137695312	733.013671875	891.9540405273438	710.1837158203125	605.4468994140625	1038.061767578125	674.0878295898438	858.307861328125	781.7349853515625	679.0025634765625	839.0685424804688	863.285888671875	687.279541015625	781.2803955078125	837.794189453125	726.0380249023438	714.440673828125	1637.2158203125	460.0677490234375	887.5018310546875	1626.679321289062	345.0639343261719	852.6646118164062	1622.728637695312	485.9545288085938	761.1075439453125	1638.363037109375	301.8034057617188	727.435791015625	897.8995971679688	187.7164764404297	607.3355102539062	901.8104248046875	549.3644409179688	701.6792602539062	941.284423828125	519.4691162109375	779.9212036132812	928.1029663085938	257.0396118164062	997.0031127929688	557.07421875	296.4357299804688	899.544921875	691.1588134765625	245.0982971191406	972.1881713867188	57.32854843139648	288.1557312011719	974.378173828125	296.267822265625	277.3227844238281	1161.924926757812	78.25876617431641	380.1722106933594	1086.563842773438	75.60567474365234	400.8667907714844	1093.104614257812	55.08939743041992	298.3486328125	894.0435791015625	65.00968170166016	324.6395263671875	755.7515869140625	471.6531066894531	524.2386474609375	679.7083740234375	757.4559936523438	563.5131225585938	545.426025390625	53.10115432739258	397.0272521972656	732.0836791992188	324.6971740722656	487.9480590820312	770.3278198242188	38.66134262084961	436.0810241699219	722.0634765625	45.59719848632812	375.8667907714844	661.7329711914062	40.94762420654297	461.2250671386719	513.8031616210938	49.21605682373047	325.6417236328125	
